# xmcd CD database file
#
# Track frame offsets:
#	180
#	15070
#	34955
#	56247
#	84232
#	106625
#	123107
#	145770
#	164515
#	184917
#	201202
#
# Disc length: 3000 seconds
#
# Revision: 0
# Processed by: cddbd v1.4PL0 Copyright (c) Steve Scherf et al.
# Submitted via: CDex 1.50beta9
#
DISCID=860bb60b
DTITLE=lowell fulson - www.lesgens.com - one more blues
DYEAR=1999
DGENRE=Blues
TTITLE0=thank's a lot for the offer
TTITLE1=worried life blues
TTITLE2=hot mama
TTITLE3=ten more shows to play
TTITLE4=i can't stand it
TTITLE5=guitar shuffle
TTITLE6=one room country shack
TTITLE7=your love for me is gone
TTITLE8=think about it
TTITLE9=one mor blues
TTITLE10=jump children
EXTD=YEAR: 1999
EXTT0=
EXTT1=
EXTT2=
EXTT3=
EXTT4=
EXTT5=
EXTT6=
EXTT7=
EXTT8=
EXTT9=
EXTT10=
PLAYORDER=
